<?xml version="1.0" encoding="UTF-8"?>
<svg width="118px" height="22px" viewBox="0 0 118 22" version="1.1" xmlns="http://www.w3.org/2000/svg" xmlns:xlink="http://www.w3.org/1999/xlink">
    <!-- Generator: Sketch 52.5 (67469) - http://www.bohemiancoding.com/sketch -->
    <title>Volbikas</title>
    <desc>Created with Sketch.</desc>
    <g id="Page-1" stroke="none" stroke-width="1" fill="none" fill-rule="evenodd">
        <path d="M17.584,1.26 L22.792,1.26 L13.804,21 L9.716,21 L0.728,1.26 L6.076,1.26 L11.816,14.588 L17.584,1.26 Z M30.576,21.224 C29.0639924,21.224 27.7340057,20.9300029 26.586,20.342 C25.4379943,19.7539971 24.5513365,18.9186721 23.926,17.836 C23.3006635,16.7533279 22.988,15.4840073 22.988,14.028 C22.988,12.5719927 23.3006635,11.3073387 23.926,10.234 C24.5513365,9.1606613 25.4333276,8.33466956 26.572,7.756 C27.7106724,7.17733044 29.0453257,6.888 30.576,6.888 C32.1066743,6.888 33.4413276,7.17733044 34.58,7.756 C35.7186724,8.33466956 36.6006635,9.1606613 37.226,10.234 C37.8513365,11.3073387 38.164,12.5719927 38.164,14.028 C38.164,15.4840073 37.8513365,16.7533279 37.226,17.836 C36.6006635,18.9186721 35.7186724,19.7539971 34.58,20.342 C33.4413276,20.9300029 32.1066743,21.224 30.576,21.224 Z M30.576,17.5 C32.3493422,17.5 33.236,16.3426782 33.236,14.028 C33.236,11.7133218 32.3493422,10.556 30.576,10.556 C28.8026578,10.556 27.916,11.7133218 27.916,14.028 C27.916,16.3426782 28.8026578,17.5 30.576,17.5 Z M40.432,21 L40.432,1.26 L45.416,1.26 L45.416,21 L40.432,21 Z M57.428,6.888 C58.6226726,6.888 59.6773288,7.17733044 60.592,7.756 C61.5066712,8.33466956 62.2206641,9.1606613 62.734,10.234 C63.2473359,11.3073387 63.504,12.5533262 63.504,13.972 C63.504,15.3906738 63.2473359,16.6506612 62.734,17.752 C62.2206641,18.8533388 61.5020046,19.7073303 60.578,20.314 C59.6539954,20.9206697 58.6040059,21.224 57.428,21.224 C56.5133288,21.224 55.6780038,21.0373352 54.922,20.664 C54.1659962,20.2906648 53.592002,19.7773366 53.2,19.124 L53.2,21 L48.3,21 L48.3,1.26 L53.284,1.26 L53.284,8.848 C53.6946687,8.25066368 54.268663,7.77466844 55.006,7.42 C55.743337,7.06533156 56.5506623,6.888 57.428,6.888 Z M55.888,17.5 C56.746671,17.5 57.409331,17.1966697 57.876,16.59 C58.342669,15.9833303 58.576,15.1106724 58.576,13.972 C58.576,12.8893279 58.3473356,12.0586696 57.89,11.48 C57.4326644,10.9013304 56.774671,10.612 55.916,10.612 C55.0386623,10.612 54.366669,10.9059971 53.9,11.494 C53.433331,12.0820029 53.2,12.9266612 53.2,14.028 C53.2,15.1480056 53.433331,16.0066637 53.9,16.604 C54.366669,17.2013363 55.029329,17.5 55.888,17.5 Z M65.8,21 L65.8,7.224 L70.784,7.224 L70.784,21 L65.8,21 Z M65.688,0.336 L70.896,0.336 L70.896,4.844 L65.688,4.844 L65.688,0.336 Z M89.292,21 L83.272,21 L78.652,15.148 L78.652,21 L73.668,21 L73.668,1.26 L78.652,1.26 L78.652,12.88 L83.188,7.252 L89.096,7.252 L83.72,13.804 L89.292,21 Z M96.208,6.888 C98.3733442,6.888 99.9739948,7.38732834 101.01,8.386 C102.046005,9.38467166 102.564,10.9386561 102.564,13.048 L102.564,21 L97.888,21 L97.888,19.068 C97.6266654,19.7400034 97.1880031,20.2673314 96.572,20.65 C95.9559969,21.0326686 95.218671,21.224 94.36,21.224 C93.4079952,21.224 92.5493372,21.0326686 91.784,20.65 C91.0186628,20.2673314 90.4166689,19.7353367 89.978,19.054 C89.5393311,18.3726633 89.32,17.602671 89.32,16.744 C89.32,15.7546617 89.5766641,14.9660029 90.09,14.378 C90.6033359,13.7899971 91.4199944,13.3653346 92.54,13.104 C93.6600056,12.8426654 95.1719905,12.712 97.076,12.712 L97.832,12.712 L97.832,12.376 C97.832,11.6853299 97.6733349,11.204668 97.356,10.934 C97.0386651,10.663332 96.4786707,10.528 95.676,10.528 C95.0413302,10.528 94.3086708,10.6539987 93.478,10.906 C92.6473292,11.1580013 91.8680036,11.479998 91.14,11.872 L89.88,8.596 C90.6826707,8.11066424 91.685994,7.7046683 92.89,7.378 C94.094006,7.0513317 95.199995,6.888 96.208,6.888 Z M95.536,17.892 C96.2080034,17.892 96.7586645,17.6540024 97.188,17.178 C97.6173355,16.7019976 97.832,16.0906704 97.832,15.344 L97.832,15.008 L97.384,15.008 C96.1893274,15.008 95.3400025,15.1153323 94.836,15.33 C94.3319975,15.5446677 94.08,15.9039975 94.08,16.408 C94.08,16.8373355 94.215332,17.1919986 94.486,17.472 C94.756668,17.7520014 95.1066645,17.892 95.536,17.892 Z M110.908,21.224 C109.58266,21.224 108.360006,21.0840014 107.24,20.804 C106.119994,20.5239986 105.177337,20.113336 104.412,19.572 L105.672,16.184 C106.41867,16.6693358 107.267995,17.0566652 108.22,17.346 C109.172005,17.6353348 110.086662,17.78 110.964,17.78 C111.505336,17.78 111.925332,17.7006675 112.224,17.542 C112.522668,17.3833325 112.672,17.1640014 112.672,16.884 C112.672,16.6413321 112.564668,16.4546673 112.35,16.324 C112.135332,16.1933327 111.701337,16.0533341 111.048,15.904 L108.836,15.4 C107.435993,15.0826651 106.428003,14.6160031 105.812,14 C105.195997,13.3839969 104.888,12.5066724 104.888,11.368 C104.888,10.4906623 105.149331,9.71133674 105.672,9.03 C106.194669,8.34866326 106.927329,7.8213352 107.87,7.448 C108.812671,7.0746648 109.881327,6.888 111.076,6.888 C112.065338,6.888 113.049995,7.03266522 114.03,7.322 C115.010005,7.61133478 115.901329,8.01733072 116.704,8.54 L115.416,11.788 C114.66933,11.321331 113.918004,10.9620013 113.162,10.71 C112.405996,10.4579987 111.692003,10.332 111.02,10.332 C110.478664,10.332 110.058668,10.4159992 109.76,10.584 C109.461332,10.7520008 109.312,10.9946651 109.312,11.312 C109.312,11.4986676 109.405332,11.6526661 109.592,11.774 C109.778668,11.8953339 110.105331,12.0119994 110.572,12.124 L112.896,12.656 C114.352007,12.9733349 115.406663,13.46333 116.06,14.126 C116.713337,14.78867 117.04,15.6893276 117.04,16.828 C117.04,18.1906735 116.494005,19.2639961 115.402,20.048 C114.309995,20.8320039 112.81201,21.224 110.908,21.224 Z" id="Volbikas" fill="#FF4400"></path>
    </g>
</svg>